<svg width="260" height="57" viewBox="0 0 260 57" fill="none" xmlns="http://www.w3.org/2000/svg">
<g clip-path="url(#clip0)">
<path fill-rule="evenodd" clip-rule="evenodd" d="M109.915 11.2953L23.1638 0.338287C22.4231 0.24473 21.7118 0.660208 21.4295 1.35138L1.56017 49.9928C1.10308 51.1118 1.96455 52.3263 3.17171 52.2648L109.915 46.8245V52.3153C109.915 53.1604 111.035 53.459 111.456 52.7262L125.553 28.1846C125.706 27.918 125.698 27.5882 125.532 27.3291L111.436 5.29198C110.991 4.59751 109.915 4.91217 109.915 5.73656V11.2953Z" fill="#FF0000"/>
<path d="M137.423 39.1194C144.069 39.1194 148.116 35.9636 148.116 30.5059C148.116 21.2984 134.342 23.3033 134.342 20.9643C134.342 20.3331 134.75 19.8505 136.235 19.8505C138.574 19.8505 141.359 20.6673 143.512 22.3009L147.522 16.9917C144.7 14.6898 141.062 13.5389 137.015 13.5389C130.221 13.5389 126.731 17.5486 126.731 21.744C126.731 31.5083 140.542 29.0951 140.542 31.4712C140.542 32.4365 139.206 32.8078 137.795 32.8078C134.453 32.8078 131.669 31.397 129.812 29.6149L125.914 35.1839C128.55 37.56 132.151 39.1194 137.423 39.1194ZM159.19 39.1194C161.863 39.1194 165.056 38.4139 166.838 36.8917L164.091 32.7706C163.2 33.5503 160.972 34.033 159.97 34.033C157.779 34.033 156.48 32.9192 156.109 31.7682H168.286V30.3945C168.286 24.083 164.24 20.296 158.968 20.296C153.176 20.296 149.203 24.4913 149.203 29.6891C149.203 35.5923 153.584 39.1194 159.19 39.1194ZM161.938 27.5358H156.034C156.257 26.719 156.926 25.3824 158.968 25.3824C161.121 25.3824 161.752 26.7561 161.938 27.5358ZM187.628 38.6738V27.8328C187.628 21.8553 183.284 20.296 178.829 20.296C176.119 20.296 172.778 21.0757 170.364 23.0063L172.629 27.1274C174.04 26.0507 175.933 25.3824 177.604 25.3824C179.795 25.3824 180.945 26.3477 180.945 27.61V29.4664C179.98 28.2412 177.864 27.4986 175.525 27.4986C172.852 27.4986 169.362 28.7609 169.362 33.2162C169.362 37.3001 172.852 39.1194 175.525 39.1194C177.753 39.1194 179.943 38.2283 180.945 36.966V38.6738H187.628ZM178.309 34.7755C177.196 34.7755 175.97 34.4414 175.97 33.3276C175.97 32.2137 177.196 31.8425 178.309 31.8425C179.349 31.8425 180.5 32.1766 180.945 32.8078V33.8102C180.5 34.4414 179.349 34.7755 178.309 34.7755ZM198.009 38.6738V27.6843C198.751 26.7932 200.571 26.4219 201.981 26.4219C202.613 26.4219 203.169 26.4962 203.504 26.6076V20.2218C201.462 20.2218 199.123 21.4098 198.009 22.7093V20.7415H191.326V38.6738H198.009ZM214.629 39.1194C218.713 39.1194 221.237 37.2259 222.24 35.7408L217.933 31.6568C217.376 32.4736 216.336 33.2162 214.926 33.2162C213.032 33.2162 211.399 31.991 211.399 29.6891C211.399 27.3872 213.032 26.1992 214.926 26.1992C216.336 26.1992 217.376 26.8675 217.933 27.7214L222.24 23.6746C221.237 22.1524 218.713 20.296 214.629 20.296C208.948 20.296 204.567 24.0087 204.567 29.6891C204.567 35.4067 208.948 39.1194 214.629 39.1194ZM243.289 38.6738V25.865C243.289 22.7464 241.47 20.296 237.311 20.296C234.156 20.296 232.188 21.5954 231.148 22.7835V13.9102H224.465V38.6738H231.148V27.61C231.705 26.9789 232.485 26.1992 234.007 26.1992C235.604 26.1992 236.606 26.8303 236.606 28.6867V38.6738H243.289Z" fill="#1D6BBE"/>
<path d="M43.8839 38.6738L34.7506 13.9102H25.3204L16.1872 38.6738H24.6892L25.5803 35.7779H34.4908L35.3818 38.6738H43.8839ZM32.4859 29.2436H27.5851L30.0355 21.2613L32.4859 29.2436ZM63.4854 38.6738V13.9102H56.8026V22.635C55.3918 20.9272 53.5725 20.296 51.7533 20.296C47.3352 20.296 43.8453 23.7488 43.8453 29.6891C43.8453 35.8522 47.4095 39.1194 51.7533 39.1194C53.5725 39.1194 55.2804 38.4882 56.8026 36.7804V38.6738H63.4854ZM54.0181 33.2162C52.1988 33.2162 50.6766 31.9167 50.6766 29.6891C50.6766 27.4615 52.1988 26.1992 54.0181 26.1992C54.9091 26.1992 56.1714 26.6076 56.8026 27.3872V31.991C56.1714 32.7706 54.9091 33.2162 54.0181 33.2162ZM85.9733 38.6738V20.7415H79.2905V31.8053C78.7336 32.4365 77.9539 33.2162 76.4688 33.2162C74.8352 33.2162 73.8699 32.5108 73.8699 30.6915V20.7415H67.1871V33.5503C67.1871 36.6318 68.9692 39.1194 73.1274 39.1194C76.2832 39.1194 78.2509 37.8199 79.2905 36.669V38.6738H85.9733ZM96.3854 38.6738V13.9102H89.7025V38.6738H96.3854ZM107.645 39.1194C109.91 39.1194 111.469 38.5624 112.174 37.9313L110.986 32.882C110.838 33.0305 110.244 33.2162 109.65 33.2162C108.759 33.2162 108.165 32.4736 108.165 31.5455V26.5333H111.803V20.7415H108.165V15.8408H101.482V20.7415H98.5118V26.5333H101.482V33.4761C101.482 37.2259 103.672 39.1194 107.645 39.1194Z" fill="white"/>
</g>
<defs>
<clipPath id="clip0">
<rect width="259" height="56" fill="white" transform="translate(0.578125 0.179688)"/>
</clipPath>
</defs>
</svg>
